<?xml version="1.0" encoding="UTF-8" standalone="no"?>
<!-- Created with Inkscape (http://www.inkscape.org/) -->
<svg
   xmlns:svg="http://www.w3.org/2000/svg"
   xmlns="http://www.w3.org/2000/svg"
   version="1.0"
   width="590.17322"
   height="898.40552"
   id="svg2443"
   xml:space="preserve"><defs
     id="defs2446"><clipPath
       id="clipPath2458"><path
         d="M 0,841 L 595,841 L 595,0 L 0,0 L 0,841 z"
         id="path2460" /></clipPath><clipPath
       id="clipPath2466"><path
         d="M 0.36,841.68 L 595.8,841.68 L 595.8,0 L 0.36,0 L 0.36,841.68 z"
         id="path2468" /></clipPath><clipPath
       id="clipPath2584"><path
         d="M 0,841 L 595,841 L 595,0 L 0,0 L 0,841 z"
         id="path2586" /></clipPath><clipPath
       id="clipPath2592"><path
         d="M 0.36,841.68 L 595.8,841.68 L 595.8,0 L 0.36,0 L 0.36,841.68 z"
         id="path2594" /></clipPath><clipPath
       id="clipPath2610"><path
         d="M 223.727,401.073 L 541.427,401.073 L 541.427,214.323 L 223.727,214.323 L 223.727,401.073 z"
         id="path2612" /></clipPath><clipPath
       id="clipPath2622"><path
         d="M 223.727,401.073 L 541.427,401.073 L 541.427,214.323 L 223.727,214.323 L 223.727,401.073 z"
         id="path2624" /></clipPath><clipPath
       id="clipPath2634"><path
         d="M 223.727,401.073 L 541.427,401.073 L 541.427,214.323 L 223.727,214.323 L 223.727,401.073 z"
         id="path2636" /></clipPath><clipPath
       id="clipPath2648"><path
         d="M 223.727,401.073 L 541.427,401.073 L 541.427,214.323 L 223.727,214.323 L 223.727,401.073 z"
         id="path2650" /></clipPath><clipPath
       id="clipPath2660"><path
         d="M 223.727,401.073 L 541.427,401.073 L 541.427,214.323 L 223.727,214.323 L 223.727,401.073 z"
         id="path2662" /></clipPath><clipPath
       id="clipPath2674"><path
         d="M 223.727,401.073 L 541.427,401.073 L 541.427,214.323 L 223.727,214.323 L 223.727,401.073 z"
         id="path2676" /></clipPath><clipPath
       id="clipPath2686"><path
         d="M 223.727,401.073 L 541.427,401.073 L 541.427,214.323 L 223.727,214.323 L 223.727,401.073 z"
         id="path2688" /></clipPath><clipPath
       id="clipPath2700"><path
         d="M 223.727,401.073 L 541.427,401.073 L 541.427,214.323 L 223.727,214.323 L 223.727,401.073 z"
         id="path2702" /></clipPath><clipPath
       id="clipPath3004"><path
         d="M 223.727,401.073 L 541.427,401.073 L 541.427,214.323 L 223.727,214.323 L 223.727,401.073 z"
         id="path3006" /></clipPath><clipPath
       id="clipPath3578"><path
         d="M 290.117,389.674 C 289.944,388.323 289.648,386.658 289.14,384.891 C 288.423,382.386 287.428,380.172 286.184,378.308 C 284.693,376.073 282.835,374.34 280.661,373.151 C 279.964,373.626 277.673,375.3 275.509,378.083 C 274,380.022 272.846,382.113 272.08,384.299 C 271.471,386.033 271.107,387.831 270.988,389.674 L 290.117,389.674"
         id="path3580" /></clipPath><clipPath
       id="clipPath4244"><path
         d="M 0,841 L 595,841 L 595,0 L 0,0 L 0,841 z"
         id="path4246" /></clipPath><clipPath
       id="clipPath4252"><path
         d="M 0.36,841.68 L 595.8,841.68 L 595.8,0 L 0.36,0 L 0.36,841.68 z"
         id="path4254" /></clipPath><clipPath
       id="clipPath4280"><path
         d="M 85.413,102.22 L 127.21,102.22 L 127.21,132.966 L 85.413,132.966 L 85.413,102.22 z"
         id="path4282" /></clipPath><clipPath
       id="clipPath4288"><path
         d="M 85.413,132.936 L 127.192,132.936 L 127.192,102.216 L 85.413,102.216 L 85.413,132.936 z"
         id="path4290" /></clipPath><clipPath
       id="clipPath4296"><path
         d="M 85.413,102.216 L 127.192,102.216 L 127.192,132.936 L 85.413,132.936 L 85.413,102.216 z"
         id="path4298" /></clipPath><clipPath
       id="clipPath4304"><path
         d="M 82.241,132.96 L 129.137,132.96 L 129.137,103.309 L 82.241,103.309 L 82.241,132.96 z"
         id="path4306" /></clipPath><clipPath
       id="clipPath4312"><path
         d="M 0,841 L 595,841 L 595,0 L 0,0 L 0,841 z"
         id="path4314" /></clipPath><clipPath
       id="clipPath4320"><path
         d="M 0.36,841.68 L 595.8,841.68 L 595.8,0 L 0.36,0 L 0.36,841.68 z"
         id="path4322" /></clipPath><clipPath
       id="clipPath4332"><path
         d="M 0,841 L 595,841 L 595,0 L 0,0 L 0,841 z"
         id="path4334" /></clipPath><clipPath
       id="clipPath4340"><path
         d="M 0.36,841.68 L 595.8,841.68 L 595.8,0 L 0.36,0 L 0.36,841.68 z"
         id="path4342" /></clipPath><clipPath
       id="clipPath4350"><path
         d="M 135.966,105.253 L 184.001,105.253 L 184.001,129.924 L 135.966,129.924 L 135.966,105.253 z"
         id="path4352" /></clipPath><clipPath
       id="clipPath4358"><path
         d="M 135.966,105.253 L 184.001,105.253 L 184.001,129.924 L 135.966,129.924 L 135.966,105.253 z"
         id="path4360" /></clipPath><clipPath
       id="clipPath4366"><path
         d="M 135.886,132.96 L 183.282,132.96 L 183.282,103.309 L 135.886,103.309 L 135.886,132.96 z"
         id="path4368" /></clipPath><clipPath
       id="clipPath4374"><path
         d="M 0,841 L 595,841 L 595,0 L 0,0 L 0,841 z"
         id="path4376" /></clipPath><clipPath
       id="clipPath4382"><path
         d="M 0.36,841.68 L 595.8,841.68 L 595.8,0 L 0.36,0 L 0.36,841.68 z"
         id="path4384" /></clipPath><clipPath
       id="clipPath4394"><path
         d="M 0,841 L 595,841 L 595,0 L 0,0 L 0,841 z"
         id="path4396" /></clipPath><clipPath
       id="clipPath4402"><path
         d="M 0.36,841.68 L 595.8,841.68 L 595.8,0 L 0.36,0 L 0.36,841.68 z"
         id="path4404" /></clipPath><clipPath
       id="clipPath4412"><path
         d="M 188.599,132.96 L 235.764,132.96 L 235.764,103.309 L 188.599,103.309 L 188.599,132.96 z"
         id="path4414" /></clipPath><clipPath
       id="clipPath4420"><path
         d="M 0,841 L 595,841 L 595,0 L 0,0 L 0,841 z"
         id="path4422" /></clipPath><clipPath
       id="clipPath4428"><path
         d="M 0.36,841.68 L 595.8,841.68 L 595.8,0 L 0.36,0 L 0.36,841.68 z"
         id="path4430" /></clipPath><clipPath
       id="clipPath4462"><path
         d="M 0,841 L 595,841 L 595,0 L 0,0 L 0,841 z"
         id="path4464" /></clipPath><clipPath
       id="clipPath4470"><path
         d="M 0.36,841.68 L 595.8,841.68 L 595.8,0 L 0.36,0 L 0.36,841.68 z"
         id="path4472" /></clipPath><clipPath
       id="clipPath4480"><path
         d="M 261.938,132.96 L 309.473,132.96 L 309.473,103.275 L 261.938,103.275 L 261.938,132.96 z"
         id="path4482" /></clipPath><clipPath
       id="clipPath4488"><path
         d="M 0,841 L 595,841 L 595,0 L 0,0 L 0,841 z"
         id="path4490" /></clipPath><clipPath
       id="clipPath4496"><path
         d="M 0.36,841.68 L 595.8,841.68 L 595.8,0 L 0.36,0 L 0.36,841.68 z"
         id="path4498" /></clipPath><clipPath
       id="clipPath4514"><path
         d="M 0,841 L 595,841 L 595,0 L 0,0 L 0,841 z"
         id="path4516" /></clipPath><clipPath
       id="clipPath4522"><path
         d="M 0.36,841.68 L 595.8,841.68 L 595.8,0 L 0.36,0 L 0.36,841.68 z"
         id="path4524" /></clipPath><clipPath
       id="clipPath4532"><path
         d="M 315.977,132.952 L 363.35,132.952 L 363.35,103.309 L 315.977,103.309 L 315.977,132.952 z"
         id="path4534" /></clipPath><clipPath
       id="clipPath4540"><path
         d="M 0,841 L 595,841 L 595,0 L 0,0 L 0,841 z"
         id="path4542" /></clipPath><clipPath
       id="clipPath4548"><path
         d="M 0.36,841.68 L 595.8,841.68 L 595.8,0 L 0.36,0 L 0.36,841.68 z"
         id="path4550" /></clipPath><clipPath
       id="clipPath4560"><path
         d="M 0,841 L 595,841 L 595,0 L 0,0 L 0,841 z"
         id="path4562" /></clipPath><clipPath
       id="clipPath4568"><path
         d="M 0.36,841.68 L 595.8,841.68 L 595.8,0 L 0.36,0 L 0.36,841.68 z"
         id="path4570" /></clipPath><clipPath
       id="clipPath4578"><path
         d="M 368.991,132.96 L 417.148,132.96 L 417.148,103.309 L 368.991,103.309 L 368.991,132.96 z"
         id="path4580" /></clipPath><clipPath
       id="clipPath4586"><path
         d="M 0,841 L 595,841 L 595,0 L 0,0 L 0,841 z"
         id="path4588" /></clipPath><clipPath
       id="clipPath4594"><path
         d="M 0.36,841.68 L 595.8,841.68 L 595.8,0 L 0.36,0 L 0.36,841.68 z"
         id="path4596" /></clipPath><clipPath
       id="clipPath4606"><path
         d="M 0,841 L 595,841 L 595,0 L 0,0 L 0,841 z"
         id="path4608" /></clipPath><clipPath
       id="clipPath4614"><path
         d="M 0.36,841.68 L 595.8,841.68 L 595.8,0 L 0.36,0 L 0.36,841.68 z"
         id="path4616" /></clipPath><clipPath
       id="clipPath4624"><path
         d="M 441.859,132.96 L 488.635,132.96 L 488.635,103.309 L 441.859,103.309 L 441.859,132.96 z"
         id="path4626" /></clipPath><clipPath
       id="clipPath4632"><path
         d="M 0,841 L 595,841 L 595,0 L 0,0 L 0,841 z"
         id="path4634" /></clipPath><clipPath
       id="clipPath4640"><path
         d="M 0.36,841.68 L 595.8,841.68 L 595.8,0 L 0.36,0 L 0.36,841.68 z"
         id="path4642" /></clipPath><clipPath
       id="clipPath4652"><path
         d="M 0,841 L 595,841 L 595,0 L 0,0 L 0,841 z"
         id="path4654" /></clipPath><clipPath
       id="clipPath4660"><path
         d="M 0.36,841.68 L 595.8,841.68 L 595.8,0 L 0.36,0 L 0.36,841.68 z"
         id="path4662" /></clipPath><clipPath
       id="clipPath4672"><path
         d="M 492.434,128.21 L 542.323,128.21 L 542.323,109.013 L 492.434,109.013 L 492.434,128.21 z"
         id="path4674" /></clipPath></defs><g
     transform="matrix(1.25,0,0,-1.25,-5.5637388,1052.075)"
     id="g2452"><g
       transform="matrix(5.6699214,0,0,5.6699214,-496.74584,-2533.0222)"
       id="g4766"><path
         d="M 107.22,471.811 L 116.169,471.968 L 124.03,471.955 L 126.401,472.034 C 126.401,472.034 129.336,471.968 129.375,472.007 C 129.414,472.047 129.008,472.099 129.008,472.099 L 128.55,472.047 L 127.488,472.086 L 125.641,472.086 L 125.641,472.034 L 125.156,472.073 L 125.706,472.138 L 129.166,472.243 L 132.087,472.361 C 132.087,472.361 134.629,472.269 134.904,472.269 C 135.179,472.269 138.114,472.453 138.114,472.453 C 138.114,472.453 138.481,472.308 138.52,472.322 C 138.56,472.335 141.757,472.453 141.757,472.453 L 142.66,472.348 C 142.66,472.348 145.412,472.479 145.412,472.545 C 145.412,472.61 139.45,472.492 139.45,472.492 C 139.45,472.492 144.862,472.689 145.726,472.61 C 146.591,472.531 151.124,472.623 151.124,472.623 L 157.871,472.767 C 157.871,472.767 165.313,472.754 165.391,472.767 C 165.47,472.78 167.448,472.806 167.448,472.806 L 167.396,472.912 C 167.396,472.912 168.287,472.008 168.195,471.732 C 168.104,471.457 167.881,470.33 167.435,470.291 C 166.99,470.252 165.955,470.252 165.955,470.252 L 156.849,470.213 C 156.849,470.213 152.709,470.213 152.329,470.213 C 151.949,470.213 149.525,470.265 149.525,470.265 L 146.656,470.265 C 146.656,470.265 143.499,470.304 143.237,470.317 C 142.975,470.33 138.586,470.317 138.036,470.304 C 137.485,470.291 133.437,470.265 133.437,470.265 C 133.437,470.265 127.41,470.317 126.702,470.409 C 125.995,470.501 123.06,470.671 122.483,470.684 C 121.907,470.697 117.57,470.75 117.439,470.697 C 117.308,470.645 117.243,470.645 117.243,470.645 L 118.16,470.566 L 117.046,470.579 C 117.046,470.579 111.15,470.776 110.914,470.776 C 110.678,470.776 107.98,471.064 107.914,471.077 C 107.848,471.09 107.115,471.156 107.128,471.248 C 107.128,471.248 106.879,471.693 107.22,471.811 z M 116.52,472.2 C 116.52,472.2 118.939,472.174 119.719,472.253 C 120.499,472.332 116.52,472.2 116.52,472.2 z M 120.697,472.279 L 121.266,472.319 C 121.266,472.319 121.517,472.134 121.847,472.187 C 122.178,472.24 124.782,472.319 124.782,472.319 L 125.839,472.213 L 128.43,472.411 C 128.43,472.411 128.456,472.464 128.258,472.451 C 128.06,472.438 125.244,472.398 125.072,472.398 C 124.901,472.398 121.398,472.345 121.398,472.345 L 120.697,472.279"
         id="path2516"
         style="fill:#fdb813;fill-opacity:1;fill-rule:nonzero;stroke:none" /><path
         d="M 108.68,487.225 C 108.107,486.216 106.901,485.711 105.061,485.711 C 103.829,485.711 102.887,485.923 102.237,486.35 C 101.462,486.871 101.074,487.714 101.074,488.879 C 101.074,490.047 101.462,490.892 102.237,491.413 C 102.89,491.843 103.831,492.057 105.061,492.057 C 106.894,492.057 108.098,491.551 108.671,490.539 L 107.885,490.16 C 107.62,490.585 107.201,490.874 106.628,491.029 C 106.255,491.134 105.733,491.186 105.061,491.186 C 104.066,491.186 103.334,491.05 102.866,490.778 C 102.252,490.429 101.946,489.796 101.946,488.879 C 101.946,487.962 102.252,487.328 102.866,486.977 C 103.343,486.704 104.075,486.569 105.061,486.569 C 105.733,486.569 106.255,486.621 106.628,486.726 C 107.198,486.879 107.617,487.169 107.885,487.595 L 108.68,487.225"
         id="path2518"
         style="fill:#003d7d;fill-opacity:1;fill-rule:nonzero;stroke:none" /><path
         d="M 117.286,488.879 C 117.286,487.708 116.899,486.862 116.125,486.341 C 115.475,485.921 114.534,485.711 113.302,485.711 C 112.069,485.711 111.128,485.921 110.478,486.341 C 109.704,486.862 109.318,487.708 109.318,488.879 C 109.318,490.047 109.704,490.892 110.478,491.413 C 111.131,491.843 112.072,492.057 113.302,492.057 C 114.531,492.057 115.472,491.843 116.125,491.413 C 116.899,490.892 117.286,490.047 117.286,488.879 z M 116.414,488.879 C 116.414,489.79 116.106,490.423 115.49,490.778 C 115.023,491.05 114.293,491.186 113.302,491.186 C 112.304,491.186 111.573,491.053 111.108,490.787 C 110.496,490.436 110.19,489.799 110.19,488.879 C 110.19,487.962 110.496,487.328 111.108,486.977 C 111.576,486.704 112.308,486.569 113.302,486.569 C 114.293,486.569 115.023,486.704 115.49,486.977 C 116.106,487.331 116.414,487.965 116.414,488.879"
         id="path2520"
         style="fill:#003d7d;fill-opacity:1;fill-rule:nonzero;stroke:none" /><path
         d="M 125.323,488.879 C 125.323,487.705 125.008,486.868 124.379,486.368 C 123.82,485.93 122.936,485.711 121.727,485.711 C 120.518,485.711 119.634,485.93 119.076,486.368 C 118.446,486.868 118.132,487.705 118.132,488.879 L 118.132,492.057 L 119.003,492.057 L 119.003,488.884 C 119.003,487.956 119.234,487.325 119.697,486.991 C 120.082,486.709 120.759,486.569 121.727,486.569 C 122.695,486.569 123.372,486.709 123.757,486.991 C 124.22,487.325 124.451,487.956 124.451,488.884 L 124.451,492.057 L 125.323,492.057 L 125.323,488.879"
         id="path2522"
         style="fill:#003d7d;fill-opacity:1;fill-rule:nonzero;stroke:none" /><path
         d="M 133.744,490.243 C 133.744,489.465 133.266,488.941 132.311,488.67 C 131.769,488.513 130.972,488.435 129.918,488.435 L 127.437,488.435 L 127.437,485.711 L 126.566,485.711 L 126.566,492.057 L 129.926,492.057 C 130.973,492.057 131.768,491.979 132.311,491.822 C 133.266,491.551 133.744,491.025 133.744,490.243 z M 132.872,490.243 C 132.872,490.872 131.974,491.186 130.18,491.186 L 127.437,491.186 L 127.437,489.306 L 130.249,489.306 C 131.998,489.306 132.872,489.618 132.872,490.243"
         id="path2524"
         style="fill:#003d7d;fill-opacity:1;fill-rule:nonzero;stroke:none" /><path
         d="M 134.796,485.711 L 134.796,492.057 L 141.19,492.057 L 141.19,491.186 L 135.667,491.186 L 135.667,489.306 L 141.19,489.306 L 141.19,488.435 L 135.667,488.435 L 135.667,486.569 L 141.19,486.569 L 141.19,485.711 L 134.796,485.711"
         id="path2526"
         style="fill:#003d7d;fill-opacity:1;fill-rule:nonzero;stroke:none" /><path
         d="M 153.698,488.879 C 153.698,487.714 153.311,486.871 152.538,486.35 C 151.888,485.923 150.947,485.711 149.714,485.711 L 146.52,485.711 L 146.52,492.057 L 149.714,492.057 C 150.956,492.057 151.897,491.84 152.538,491.404 C 153.311,490.883 153.698,490.041 153.698,488.879 z M 152.826,488.879 C 152.826,489.793 152.52,490.426 151.908,490.778 C 151.44,491.05 150.709,491.186 149.714,491.186 L 147.392,491.186 L 147.392,486.569 L 149.714,486.569 C 150.709,486.569 151.44,486.704 151.908,486.977 C 152.52,487.328 152.826,487.962 152.826,488.879"
         id="path2528"
         style="fill:#003d7d;fill-opacity:1;fill-rule:nonzero;stroke:none" /><path
         d="M 154.75,485.711 L 154.75,492.057 L 161.145,492.057 L 161.145,491.186 L 155.622,491.186 L 155.622,489.306 L 161.145,489.306 L 161.145,488.435 L 155.622,488.435 L 155.622,486.569 L 161.145,486.569 L 161.145,485.711 L 154.75,485.711"
         id="path2530"
         style="fill:#003d7d;fill-opacity:1;fill-rule:nonzero;stroke:none" /><path
         d="M 95.746,475.206 L 95.746,483.569 L 97.23,483.569 L 97.23,476.663 L 104.137,476.663 L 104.137,475.206 L 95.746,475.206"
         id="path2532"
         style="fill:#003d7d;fill-opacity:1;fill-rule:nonzero;stroke:none" /><path
         d="M 114.19,475.206 L 113.329,476.663 L 107.336,476.663 L 106.474,475.206 L 104.793,475.206 L 109.624,483.569 L 111.04,483.569 L 115.883,475.206 L 114.19,475.206 z M 110.329,481.858 L 108.179,478.148 L 112.485,478.148 L 110.329,481.858"
         id="path2534"
         style="fill:#003d7d;fill-opacity:1;fill-rule:nonzero;stroke:none" /><path
         d="M 123.26,475.206 L 123.26,483.569 L 124.745,483.569 L 124.745,476.663 L 131.651,476.663 L 131.651,475.206 L 123.26,475.206"
         id="path2536"
         style="fill:#003d7d;fill-opacity:1;fill-rule:nonzero;stroke:none" /><path
         d="M 132.98,483.569 L 134.465,483.569 L 134.465,475.206 L 132.98,475.206 L 132.98,483.569 z"
         id="path2538"
         style="fill:#003d7d;fill-opacity:1;fill-rule:nonzero;stroke:none" /><path
         d="M 144.686,480.743 C 144.342,481.294 143.832,481.671 143.154,481.876 C 142.684,482.015 142.041,482.084 141.224,482.084 C 140.033,482.084 139.164,481.932 138.617,481.628 C 137.889,481.216 137.525,480.465 137.525,479.377 C 137.525,478.283 137.893,477.535 138.628,477.131 C 139.171,476.819 140.036,476.663 141.222,476.663 C 141.961,476.663 142.542,476.709 142.966,476.802 C 143.62,476.952 144.113,477.235 144.444,477.651 L 144.444,478.638 L 140.971,478.638 L 140.971,480.123 L 145.929,480.123 L 145.929,475.206 L 144.444,475.206 L 144.444,475.801 C 143.627,475.405 142.552,475.206 141.219,475.206 C 137.767,475.206 136.041,476.597 136.041,479.382 C 136.041,482.173 137.768,483.569 141.224,483.569 C 143.59,483.569 145.186,482.84 146.015,481.385 L 144.686,480.743"
         id="path2540"
         style="fill:#003d7d;fill-opacity:1;fill-rule:nonzero;stroke:none" /><path
         d="M 157.135,479.382 C 157.135,477.849 156.722,476.752 155.897,476.089 C 155.16,475.5 154.008,475.206 152.443,475.206 C 150.873,475.206 149.721,475.5 148.989,476.089 C 148.163,476.752 147.751,477.849 147.751,479.382 L 147.751,483.569 L 149.235,483.569 L 149.235,479.379 C 149.235,478.266 149.505,477.518 150.044,477.137 C 150.487,476.821 151.287,476.663 152.443,476.663 C 153.599,476.663 154.398,476.821 154.841,477.137 C 155.381,477.518 155.65,478.266 155.65,479.379 L 155.65,483.569 L 157.135,483.569 L 157.135,479.382"
         id="path2542"
         style="fill:#003d7d;fill-opacity:1;fill-rule:nonzero;stroke:none" /><path
         d="M 158.473,475.206 L 158.473,483.569 L 166.863,483.569 L 166.863,482.084 L 159.957,482.084 L 159.957,480.123 L 166.863,480.123 L 166.863,478.638 L 159.957,478.638 L 159.957,476.663 L 166.863,476.663 L 166.863,475.206 L 158.473,475.206"
         id="path2544"
         style="fill:#003d7d;fill-opacity:1;fill-rule:nonzero;stroke:none" /><path
         d="M 98.04,574.69 C 98.04,574.69 128.458,579.048 129.003,579.366 C 129.548,579.684 128.231,579.457 128.231,579.457 L 119.151,579.184 L 119.06,578.776 L 119.65,578.776 C 119.65,578.776 117.789,578.458 117.562,578.458 C 117.335,578.458 109.345,577.55 109.345,577.55 C 109.345,577.55 105.485,577.096 104.578,576.96 C 103.67,576.823 100.488,575.996 98.358,575.144 C 97.223,574.69 98.04,574.69 98.04,574.69"
         id="path2546"
         style="fill:#fdb813;fill-opacity:1;fill-rule:nonzero;stroke:none" /><path
         d="M 129.321,579.457 L 130.955,579.684 L 131,579.411 L 129.366,579.139 L 129.321,579.457"
         id="path2548"
         style="fill:#fdb813;fill-opacity:1;fill-rule:nonzero;stroke:none" /><path
         d="M 166.463,584.615 C 158.927,594.24 124.23,591.731 118.011,591.55 C 111.791,591.368 101.776,589.299 101.776,589.299 L 101.684,589.047 C 101.684,589.047 100.328,588.817 100.099,588.748 C 99.87,588.68 99.663,588.771 99.479,588.725 C 95.534,587.738 92.223,586.016 92.223,586.016 C 92.223,586.016 92.199,586.153 92.039,586.016 C 91.879,585.878 91.945,583.63 91.945,583.63 C 91.945,583.63 92.062,581.656 92.085,581.382 C 92.108,581.107 92.274,579.048 92.274,579.048 L 92.91,579.502 L 93.091,579.139 L 93.5,579.502 C 93.5,579.502 93.001,578.776 93.409,578.957 C 93.818,579.139 100.628,580.092 100.628,580.092 C 100.628,580.092 98.903,579.775 98.539,579.593 C 98.176,579.411 98.63,579.23 98.63,579.23 C 98.63,579.23 102.262,579.82 102.852,579.911 C 103.443,580.001 112.25,580.728 112.25,580.728 L 125.779,581.59 C 125.779,581.59 126.324,581.681 125.825,581.863 C 124.486,582.35 114.747,581.091 114.747,581.091 C 114.747,581.091 114.202,581.227 114.066,581.227 C 113.93,581.227 107.937,580.501 107.438,580.546 C 106.938,580.592 105.486,580.728 105.486,580.728 L 106.439,580.864 L 106.484,581.182 C 111.21,581.632 111.636,581.474 114.611,581.727 C 123.361,582.468 133.759,583.065 137.602,582.904 C 158.156,582.047 159.693,578.724 159.693,578.724 C 159.693,578.724 144.21,580.025 143.484,580.025 C 142.758,580.025 138.442,579.876 138.442,579.876 L 137.629,579.411 L 137.629,579.865 L 133.725,579.684 L 128.276,578.776 L 127.732,578.594 L 127.187,578.685 C 127.187,578.685 120.649,577.686 120.286,577.686 C 119.923,577.686 118.561,577.414 117.653,577.414 C 116.745,577.414 116.745,577.051 116.745,577.051 C 116.745,577.051 104.941,575.325 103.488,575.053 C 102.035,574.781 96.678,574.236 96.678,574.236 L 96.224,573.782 C 96.224,573.782 95.316,573.328 94.317,572.511 C 93.318,571.693 93.409,570.695 93.409,570.695 L 94.408,565.791 L 97.586,564.611 C 97.586,564.611 97.393,565.265 97.677,565.428 C 106.212,570.331 118.198,569.787 120.195,570.059 C 122.193,570.331 137.538,570.876 147.617,571.421 C 157.696,571.966 162.599,571.149 162.599,571.149 L 162.508,570.785 L 165.232,572.601 L 166.821,581.591 L 166.463,584.615"
         id="path2550"
         style="fill:#fdb813;fill-opacity:1;fill-rule:nonzero;stroke:none" /><path
         d="M 99.629,560.832 L 106.439,561.853 L 106.711,561.717 L 115.837,563.147 L 116.313,563.079 C 116.313,563.079 120.195,563.556 120.468,563.692 C 120.74,563.828 126.12,564.441 126.12,564.441 C 126.12,564.441 134.156,565.667 134.36,565.803 C 134.564,565.939 131.908,565.803 131.908,565.803 L 130.206,565.462 L 130.002,565.735 L 122.987,565.258 C 122.987,565.258 119.582,565.054 118.22,564.918 C 116.858,564.781 109.367,564.1 105.349,563.147 C 101.331,562.194 100.514,561.513 100.514,561.513 L 99.629,560.832"
         id="path2552"
         style="fill:#fdb813;fill-opacity:1;fill-rule:nonzero;stroke:none" /><path
         d="M 102.943,558.334 L 102.989,558.108 L 115.042,559.992 L 102.943,558.334"
         id="path2554"
         style="fill:#fdb813;fill-opacity:1;fill-rule:nonzero;stroke:none" /><path
         d="M 162.553,564.305 C 162.553,564.305 158.74,565.462 155.743,565.53 C 154.172,565.566 153.687,565.508 153.581,565.445 L 153.428,565.599 L 150.568,565.939 L 150.908,565.53 C 150.908,565.53 144.915,565.394 144.235,565.667 C 143.554,565.939 139.74,565.054 138.582,565.054 C 137.424,565.054 133.951,565.122 133.951,565.122 C 133.951,565.122 133.543,564.713 133.611,564.509 C 133.679,564.305 120.195,562.534 120.195,562.534 L 106.711,560.355 L 106.098,560.491 L 97.995,559.333 L 97.79,557.767 L 100.31,558.312 L 100.378,558.108 L 102.625,558.38 L 102.693,558.039 L 98.131,557.427 L 100.176,553.255 L 102.221,552.693 L 102.987,553.306 L 103.908,553.664 C 103.908,553.664 103.703,553.613 104.368,553.869 C 105.032,554.124 106.326,554.584 107.961,554.857 C 109.595,555.129 114.319,555.651 114.319,555.651 C 114.319,555.651 117.199,555.926 118.561,556.267 C 119.923,556.607 124.962,556.737 125.167,556.805 C 125.371,556.873 131.636,557.42 131.636,557.42 L 131.65,557.702 L 132.521,557.882 L 132.867,557.484 C 132.867,557.484 135.159,558.245 135.636,558.382 C 136.113,558.518 139.136,558.228 139.136,558.228 L 144.571,558.984 L 143.584,558.523 L 144.353,558.369 L 151.862,558.997 C 151.862,558.997 156.475,559.599 157.633,559.394 L 157.582,559.805 C 157.582,559.805 154.267,559.612 152.429,559.407 C 150.59,559.203 151.441,559.535 151.441,559.535 L 147.647,559.138 L 147.647,559.548 C 147.647,559.548 156.712,560.409 160.222,559.869 C 161.108,559.733 163.098,562.943 163.098,562.943 L 163.234,563.556 L 163.371,564.1 L 162.553,564.305 z M 106.575,560.037 C 105.803,559.946 105.372,559.447 105.122,559.515 C 104.873,559.583 102.671,559.288 102.671,559.288 L 103.851,559.787 C 103.851,559.787 107.347,560.128 106.575,560.037 z M 128.844,557.292 L 126.21,557.337 L 131.386,557.973 L 128.844,557.292 z M 129.627,562.199 L 131.243,562.522 L 131.783,562.846 L 134.478,562.954 L 129.627,562.199"
         id="path2556"
         style="fill:#fdb813;fill-opacity:1;fill-rule:nonzero;stroke:none" /><path
         d="M 121.875,551.036 L 124.417,551.309 L 122.692,550.9 L 121.875,551.036"
         id="path2558"
         style="fill:#fdb813;fill-opacity:1;fill-rule:nonzero;stroke:none" /><path
         d="M 159.875,553.261 C 159.648,553.67 157.786,554.169 157.786,554.169 L 157.514,553.987 C 157.514,553.987 145.256,553.443 144.439,553.352 C 143.622,553.261 140.625,553.125 136.948,552.898 C 133.27,552.671 130.365,552.035 130.365,552.035 C 130.365,552.035 129.911,551.899 127.868,551.808 C 125.825,551.717 118.879,550.855 118.879,550.855 L 118.697,550.582 L 118.152,550.401 L 117.835,550.673 C 117.835,550.673 116.2,550.264 115.519,550.128 C 114.838,549.992 114.793,549.947 114.112,549.947 C 113.431,549.947 111.115,549.674 111.115,549.674 L 109.345,549.175 C 109.345,549.175 108.437,549.084 107.665,548.857 C 106.893,548.63 105.304,547.677 105.304,547.677 L 105.349,547.495 L 104.532,546.451 L 107.882,542.602 L 110.357,542.993 L 110.585,542.928 L 111.725,543.253 L 111.725,543.547 L 114.52,543.905 L 117.327,544.426 L 117.392,544.166 C 117.392,544.166 118.031,544.081 118.304,544.035 C 118.576,543.99 118.924,544.166 118.924,544.166 L 120.486,544.426 L 130.127,545.924 L 130.485,545.696 C 130.485,545.696 136.935,546.061 137.939,546.764 C 138.387,547.077 139.282,546.919 139.645,546.964 C 140.009,547.01 141.653,547.466 141.653,547.466 L 142.155,546.764 L 152.595,548.57 L 157.844,550.093 L 157.519,549.67 L 155.141,549.279 L 155.076,548.986 L 158.821,549.507 C 158.821,549.507 159.293,549.631 159.929,551.266 C 160.564,552.9 160.102,552.852 159.875,553.261 z M 110.57,542.138 L 110.934,542.501 L 107.982,541.911 L 110.57,542.138"
         id="path2560"
         style="fill:#fdb813;fill-opacity:1;fill-rule:nonzero;stroke:none" /><path
         d="M 108.134,542.212 L 105.731,544.461 L 105.731,544.922 C 105.731,544.922 104.402,546.012 104.402,546.148 C 104.402,546.285 104.124,546.678 104.441,547.041 C 104.759,547.404 105.713,548.131 105.713,548.131 L 108.255,549.175 L 108.709,549.357 C 108.709,549.357 108.663,549.538 108.482,549.538 C 108.301,549.538 106.62,549.538 105.349,548.539 C 104.078,547.54 103.851,546.95 103.851,546.95 L 103.993,546.148 L 107.622,541.957 L 108.134,542.212"
         id="path2562"
         style="fill:#fdb813;fill-opacity:1;fill-rule:nonzero;stroke:none" /><path
         d="M 132.928,544.98 L 137.716,545.566 C 137.716,545.566 137.596,546.257 138.367,546.348 C 139.139,546.439 141.983,546.25 141.983,546.25 L 144.393,546.674 L 144.784,546.576 L 150.907,547.618 L 152.079,547.651 L 152.177,547.423 L 152.861,547.52 L 152.894,547.781 L 158.015,548.972 L 156.672,546.478 L 153.545,545.99 L 153.512,545.664 C 153.512,545.664 145.302,545.135 141.624,544.817 C 137.947,544.499 133.962,544.375 133.417,544.556 C 132.872,544.738 132.928,544.98 132.928,544.98"
         id="path2564"
         style="fill:#fdb813;fill-opacity:1;fill-rule:nonzero;stroke:none" /><path
         d="M 153.968,545.631 L 155.499,545.664 L 156.15,545.599 L 156.509,546.152 L 153.871,545.859 L 153.968,545.631"
         id="path2566"
         style="fill:#fdb813;fill-opacity:1;fill-rule:nonzero;stroke:none" /><path
         d="M 151.884,540.14 C 151.884,540.14 151.93,540.594 152.157,541.185 C 152.384,541.775 151.634,541.856 151.634,541.856 C 151.634,541.856 150.477,541.684 149.206,541.457 C 147.935,541.23 140.035,540.821 140.035,540.821 L 128.957,539.005 L 115.882,537.008 L 115.383,537.053 L 110.48,536.191 L 110.467,535.668 C 110.467,535.668 111.037,534.491 111.9,533.583 C 112.763,532.675 114.7,532.116 114.7,532.116 L 115.242,532.008 L 115.73,531.411 L 117.789,532.008 L 118.277,532.008 C 118.277,532.008 118.414,532.127 119.749,532.508 C 120.661,532.769 119.354,532.638 120.824,532.899 C 122.997,533.285 124.374,533.323 124.374,533.323 L 124.179,533.094 L 124.196,532.91 L 124.996,532.842 L 125.167,533.132 L 124.724,533.319 L 125.813,533.421 L 125.995,533.058 L 127.261,533.285 L 127.295,533.506 L 126.086,533.523 C 126.086,533.523 126.668,533.585 126.886,533.608 C 127.62,533.686 128.948,533.811 129.508,533.881 C 130.234,533.972 130.325,533.864 130.325,533.864 L 135.841,534.46 L 136.233,534.647 L 137.305,534.562 C 137.305,534.562 140.251,534.931 140.523,535.021 C 140.795,535.112 140.637,534.873 141.954,535.1 C 143.27,535.327 146.916,535.448 148.407,535.907 C 149.718,536.31 151.521,539.505 151.521,539.505 L 152.338,540.322 L 151.884,540.14"
         id="path2568"
         style="fill:#fdb813;fill-opacity:1;fill-rule:nonzero;stroke:none" /><path
         d="M 133.951,540.549 C 130.273,540.549 116.064,539.142 115.519,539.051 C 114.974,538.96 111.524,538.279 111.524,538.279 L 111.615,538.733 L 111.388,538.687 L 110.57,536.69 L 115.519,537.371 C 115.519,537.371 117.88,537.78 118.061,537.78 C 118.243,537.78 125.961,538.915 125.961,538.915 C 125.961,538.915 135.586,540.322 135.768,540.367 C 135.949,540.413 135.904,540.64 135.904,540.64 C 135.904,540.64 135.177,540.549 133.951,540.549"
         id="path2570"
         style="fill:#fdb813;fill-opacity:1;fill-rule:nonzero;stroke:none" /><path
         d="M 142.634,529.307 L 141.885,530.772 L 141.885,530.499 L 137.423,529.862 C 137.586,529.884 137.983,529.927 137.901,529.818 C 137.799,529.682 136.539,529.648 136.471,529.75 C 136.403,529.852 135.79,529.512 135.518,529.375 C 135.245,529.239 131.704,529.069 131.704,529.069 L 131.67,528.967 L 131.057,528.933 C 131.057,528.933 130.036,528.694 129.797,528.694 C 129.559,528.694 130.002,528.899 130.002,528.899 C 130.002,528.899 128.606,528.797 128.503,528.797 C 128.401,528.797 128.708,528.967 128.708,528.967 L 127.38,528.831 C 127.38,528.831 127.993,529.035 126.29,528.694 C 124.588,528.354 121.796,528.048 121.796,528.048 L 121.898,528.218 C 121.898,528.218 119.787,527.843 119.378,527.843 C 118.969,527.843 117.948,527.537 117.948,527.537 L 117.675,527.605 L 116.041,527.196 L 115.803,526.686 C 115.803,526.686 116.075,526.243 116.109,526.107 C 116.143,525.97 116.211,525.834 116.211,525.834 L 118.731,522.565 C 118.731,522.565 120.706,520.659 121.455,519.399 C 121.455,519.399 106.677,516.266 106.726,493.647 C 106.726,493.647 111.605,515.597 126.924,518.792 L 121.145,525.107 L 136.188,527.541 C 136.188,527.541 138.548,527.809 138.752,527.843 C 138.957,527.877 139.944,527.979 139.944,527.979 L 140.865,528.169 L 141,528.388 L 141.17,528.184 L 140.285,527.707 L 140.202,527.692 L 137.935,527.298 L 140.898,527.571 L 141.238,527.702 L 141.783,528.184 L 142.634,529.307 z M 141.34,527.741 L 141.238,527.702 L 140.898,527.401 L 141.34,527.741 z M 137.423,529.862 C 137.383,529.856 137.356,529.852 137.356,529.852 L 137.423,529.862 z M 126.665,519.739 L 125.473,520.863 L 126.563,519.569 L 126.665,519.739 z M 115.735,525.63 L 115.394,525.97 L 115.326,525.834 L 115.701,525.324 L 115.735,525.63 z M 117.573,523.451 L 116.926,524.098 C 116.926,524.098 117.233,523.621 117.335,523.553 C 117.437,523.485 117.573,523.451 117.573,523.451 z M 133.202,526.617 L 136.199,527.333 L 131.227,526.515 L 133.202,526.617 z M 132.317,529.614 L 129.729,529.205 L 130.138,529.001 L 132.317,529.614"
         id="path2572"
         style="fill:#fdb813;fill-opacity:1;fill-rule:nonzero;stroke:none" /><path
         d="M 145.826,517.185 L 145.824,517.191 C 145.811,517.237 145.782,517.249 145.749,517.271 L 145.799,517.177 L 145.831,517.104 L 145.833,517.111 L 145.849,517.08 L 145.838,517.129 L 145.848,517.163 L 145.826,517.185 z M 146.006,516.877 L 145.964,516.918 L 145.988,516.888 L 146.004,516.876 C 146.003,516.875 146.001,516.874 146.001,516.874 L 146.23,516.603 C 146.23,516.603 146.202,516.645 146.169,516.696 C 146.185,516.679 146.2,516.661 146.22,516.644 L 146.151,516.724 C 146.109,516.79 146.064,516.861 146.06,516.874 C 146.058,516.879 146.054,516.882 146.05,516.883 L 146.048,516.886 C 146.048,516.886 146.048,516.885 146.048,516.884 C 146.034,516.888 146.014,516.88 146.006,516.877 z M 144.057,517.603 L 144.291,517.436 L 144.472,517.273 L 144.381,517.371 L 144.532,517.264 L 144.337,517.419 L 143.895,517.893 L 143.666,517.995 L 144.093,517.613 L 143.623,517.987 C 143.762,517.852 143.853,517.753 144.057,517.603 z M 139.115,521.482 L 139.116,521.481 C 139.116,521.482 139.116,521.482 139.115,521.482 z M 161.072,500.16 C 159.114,500.16 157.525,498.572 157.525,496.614 C 157.525,494.655 159.114,493.068 161.072,493.068 C 163.031,493.068 164.619,494.655 164.619,496.614 C 164.619,498.572 163.031,500.16 161.072,500.16 z M 146.048,516.886 C 146.044,516.911 146.031,516.945 146.029,516.959 L 146.048,516.886 z M 152.036,510.239 C 152.011,510.273 151.988,510.307 151.964,510.342 C 151.872,510.471 152.843,511.425 153.794,514.013 C 153.999,514.516 154.17,515.028 154.288,515.538 C 154.834,517.45 155.302,520.001 155.462,523.37 C 155.474,523.496 155.486,523.637 155.495,523.786 C 155.503,524.013 155.509,524.24 155.503,524.467 C 155.503,524.492 155.505,524.515 155.505,524.54 C 155.522,525.22 155.369,525.43 155.2,525.445 C 155.199,525.445 155.198,525.445 155.197,525.445 C 155.187,525.446 155.177,525.445 155.166,525.445 C 155.12,525.448 155.069,525.437 155.013,525.398 C 155.009,525.395 155.006,525.391 155.002,525.388 C 154.913,525.333 154.84,525.251 154.805,525.187 C 154.735,525.095 154.675,524.998 154.613,524.903 L 154.718,525.051 L 154.512,524.723 C 154.34,524.406 154.187,524.081 154.043,523.748 L 153.929,523.436 C 153.76,523.1 153.632,522.839 153.632,522.804 C 153.632,522.721 152.723,520.067 152.372,519.046 C 152.33,518.936 152.284,518.827 152.239,518.718 C 152.246,518.902 152.241,519.463 152.018,520.13 C 152.013,520.145 152.008,520.16 152.003,520.175 C 151.985,520.226 151.967,520.277 151.946,520.329 C 151.739,520.878 151.406,521.37 150.977,521.759 C 150.958,521.777 150.936,521.794 150.916,521.812 C 150.868,521.854 150.82,521.896 150.77,521.936 C 150.765,521.94 150.759,521.943 150.754,521.946 C 150.604,522.067 150.444,522.185 150.261,522.293 C 149.416,522.795 148.525,522.753 147.75,522.514 C 147.182,522.382 146.627,522.13 146.126,521.761 C 145.983,521.672 145.841,521.534 145.707,521.368 C 145.635,521.307 145.596,521.272 145.596,521.272 C 145.596,521.272 145.562,521.205 145.511,521.097 C 145.177,520.583 144.93,519.928 144.916,519.498 C 144.919,519.452 144.923,519.411 144.929,519.372 C 144.925,519.291 144.93,519.218 144.95,519.16 C 145.12,518.65 145.392,519.058 145.392,519.058 L 145.403,518.836 C 145.384,518.828 145.366,518.82 145.361,518.777 C 145.375,518.74 145.402,518.669 145.402,518.669 C 145.365,518.503 145.375,518.323 145.462,518.168 L 145.469,518.197 C 145.633,517.677 146.313,515.911 147.986,515.712 C 148.036,515.699 148.085,515.684 148.134,515.674 C 148.159,515.683 148.181,515.69 148.204,515.692 C 148.219,515.691 148.232,515.688 148.247,515.688 L 148.342,515.648 L 148.535,515.624 L 148.606,515.624 C 148.615,515.626 148.621,515.628 148.625,515.63 C 148.634,515.628 148.643,515.626 148.652,515.625 L 148.605,515.624 L 148.572,515.619 C 148.721,515.587 148.869,515.616 149.018,515.622 L 149.11,515.639 C 149.131,515.643 149.151,515.647 149.172,515.651 C 149.248,515.658 149.309,515.663 149.32,515.66 C 149.338,515.656 149.361,515.654 149.378,515.653 C 149.383,515.651 149.389,515.651 149.394,515.648 L 149.472,515.668 L 149.457,515.672 L 149.486,515.672 L 149.814,515.762 C 150.012,515.799 150.187,515.896 150.369,515.988 C 150.778,516.143 150.984,516.311 151.051,516.375 C 150.897,516.131 150.737,515.889 150.561,515.653 C 150.582,515.641 150.319,515.318 149.993,515.011 C 149.986,515.005 149.979,515 149.973,514.994 C 149.938,514.965 149.902,514.936 149.867,514.909 C 149.861,514.904 149.855,514.9 149.849,514.895 C 149.813,514.867 149.776,514.84 149.739,514.815 C 149.735,514.812 149.73,514.81 149.726,514.807 C 149.687,514.78 149.648,514.755 149.609,514.731 C 149.606,514.729 149.603,514.728 149.6,514.727 C 149.56,514.702 149.519,514.679 149.477,514.658 C 149.473,514.656 149.469,514.654 149.465,514.652 C 149.425,514.632 149.385,514.613 149.344,514.595 C 149.34,514.594 149.336,514.592 149.332,514.591 C 149.292,514.574 149.251,514.558 149.21,514.544 C 149.204,514.542 149.199,514.541 149.194,514.539 C 149.154,514.526 149.114,514.514 149.074,514.504 C 149.066,514.502 149.057,514.501 149.049,514.499 C 149.012,514.49 148.974,514.482 148.936,514.476 C 148.925,514.474 148.914,514.473 148.903,514.472 C 148.883,514.469 148.863,514.467 148.842,514.465 C 148.072,514.508 146.19,515.832 144.892,516.817 C 144.338,517.253 143.76,517.717 143.181,518.186 C 142.446,518.811 140.75,520.23 139.306,521.269 C 138.463,521.903 137.795,522.347 137.445,522.445 C 137.364,522.468 137.291,522.485 137.223,522.499 C 137.16,522.512 137.104,522.521 137.05,522.529 C 137.631,522.516 138.294,522.009 138.845,521.65 C 138.805,521.664 138.921,521.567 139.187,521.369 L 139.55,521.151 C 139.404,521.255 139.26,521.368 139.116,521.482 C 139.115,521.482 139.115,521.482 139.115,521.482 C 138.511,521.958 137.903,522.46 137.132,522.547 C 137.139,522.551 136.724,522.66 136.502,522.538 C 136.234,522.315 136.347,522.254 136.347,522.206 C 136.347,522.206 136.347,522.206 136.347,522.205 L 136.347,522.206 C 136.347,522.205 136.347,522.205 136.347,522.204 C 136.346,522.194 136.347,522.185 136.346,522.175 C 136.251,521.921 136.301,521.595 136.339,521.424 C 136.188,521.417 136.389,520.985 137.791,519.276 C 139.407,517.422 142.014,513.662 142.48,510.58 C 142.526,509.986 142.519,509.382 142.466,508.769 C 142.439,508.644 142.409,508.52 142.37,508.4 C 142.07,506.343 141.323,504.378 140.405,502.55 C 139.945,501.634 139.442,500.745 138.898,499.885 C 138.693,499.511 138.168,499.011 138.298,498.219 C 138.316,498.064 138.367,497.935 138.439,497.825 C 138.461,497.776 138.486,497.727 138.514,497.675 C 138.758,497.231 139.236,497.225 139.723,497.382 C 139.839,497.405 139.942,497.441 140.021,497.491 C 140.035,497.499 140.049,497.507 140.063,497.515 C 140.656,497.784 141.187,498.203 141.238,498.254 L 141.239,498.255 C 142.599,499.227 143.651,500.393 144.868,501.494 C 145.611,502.22 146.345,502.96 147.064,503.733 C 147.421,504.124 147.779,504.51 148.12,504.937 C 148.246,505.117 148.366,505.255 148.409,505.303 C 148.476,505.311 148.723,505.124 148.885,504.979 C 151.354,502.282 152.991,498.95 154.69,495.364 C 154.703,495.307 154.716,495.255 154.728,495.202 C 154.737,495.163 154.747,495.125 154.756,495.088 C 154.768,495.037 154.781,494.987 154.793,494.94 C 154.804,494.901 154.814,494.866 154.824,494.829 C 154.843,494.76 154.862,494.695 154.881,494.634 C 154.89,494.604 154.899,494.574 154.908,494.547 C 154.92,494.511 154.931,494.477 154.942,494.445 C 154.952,494.417 154.962,494.392 154.971,494.367 C 154.989,494.32 155.006,494.277 155.023,494.238 C 155.032,494.217 155.041,494.195 155.05,494.176 C 155.061,494.154 155.071,494.132 155.081,494.112 C 155.09,494.095 155.099,494.079 155.108,494.063 C 155.124,494.036 155.139,494.011 155.155,493.988 C 155.164,493.975 155.173,493.962 155.182,493.951 C 155.191,493.938 155.201,493.928 155.21,493.917 C 155.219,493.908 155.227,493.901 155.235,493.893 C 155.249,493.88 155.263,493.87 155.276,493.861 C 155.285,493.855 155.294,493.85 155.303,493.845 C 155.312,493.841 155.322,493.838 155.33,493.836 C 155.332,493.836 155.333,493.836 155.335,493.835 C 155.371,493.801 155.405,493.784 155.437,493.786 C 155.458,493.742 155.478,493.699 155.499,493.655 C 155.62,493.865 155.729,494.076 155.831,494.287 C 156.208,494.958 156.712,496.24 156.76,497.763 C 156.963,500.479 156.074,503.162 154.933,505.458 C 154.123,507.122 153.237,508.861 152.036,510.239 z M 154.78,525.128 C 154.779,525.126 154.778,525.124 154.777,525.122 C 154.772,525.117 154.771,525.116 154.766,525.11 C 154.77,525.115 154.775,525.122 154.78,525.128 z M 145.428,518.262 C 145.431,518.283 145.43,518.303 145.431,518.324 C 145.433,518.319 145.433,518.318 145.435,518.311 C 145.432,518.3 145.429,518.284 145.428,518.262 z M 146.155,515.988 L 145.967,516.136 L 146.977,515.406 L 145.602,516.535 L 145.771,516.339 L 145.631,516.405 L 145.544,516.478 L 145.381,516.602 L 145.624,516.407 L 145.533,516.45 L 145.776,516.274 C 145.794,516.251 145.748,516.274 145.679,516.317 C 145.82,516.225 145.976,516.111 146.155,515.988 z M 146.155,515.988 C 146.419,515.786 146.688,515.578 146.985,515.381 C 146.664,515.613 146.394,515.821 146.155,515.988 z M 145.679,516.317 C 145.56,516.397 145.454,516.464 145.361,516.522 C 145.417,516.487 145.575,516.381 145.679,516.317"
         id="path2574"
         style="fill:#fdb813;fill-opacity:1;fill-rule:nonzero;stroke:none" /><path
         d="M 103.214,494.817 L 103.214,494.069 L 102.948,494.069 L 102.948,495.875 L 103.214,495.875 L 103.214,495.126 L 105.18,495.126 L 105.18,494.817 L 103.214,494.817"
         id="path2576"
         style="fill:#fdb813;fill-opacity:1;fill-rule:nonzero;stroke:none" /><path
         d="M 103.171,498.21 L 103.171,498.203 L 105.18,497.489 L 105.18,497.198 L 103.171,496.484 L 103.171,496.478 L 105.18,496.478 L 105.18,496.168 L 102.948,496.168 L 102.948,496.722 L 104.787,497.365 L 104.787,497.372 L 102.948,498.002 L 102.948,498.519 L 105.18,498.519 L 105.18,498.21 L 103.171,498.21"
         id="path2578"
         style="fill:#fdb813;fill-opacity:1;fill-rule:nonzero;stroke:none" /></g></g></svg>