<?xml version="1.0" encoding="UTF-8" standalone="no"?>
<svg
   xmlns:dc="http://purl.org/dc/elements/1.1/"
   xmlns:cc="http://creativecommons.org/ns#"
   xmlns:rdf="http://www.w3.org/1999/02/22-rdf-syntax-ns#"
   xmlns:svg="http://www.w3.org/2000/svg"
   xmlns="http://www.w3.org/2000/svg"
   xmlns:sodipodi="http://sodipodi.sourceforge.net/DTD/sodipodi-0.dtd"
   xmlns:inkscape="http://www.inkscape.org/namespaces/inkscape"
   width="172.89235"
   height="183.08363"
   viewBox="0 0 45.744433 48.440879"
   version="1.1"
   id="svg16"
   inkscape:version="1.0.1 (c497b03c, 2020-09-10)"
   sodipodi:docname="zenith.svg">
  <defs
     id="defs10" />
  <sodipodi:namedview
     id="base"
     pagecolor="#00ffff"
     bordercolor="#666666"
     borderopacity="1.0"
     inkscape:pageopacity="0"
     inkscape:pageshadow="2"
     inkscape:zoom="0.92674165"
     inkscape:cx="50.763265"
     inkscape:cy="43.925101"
     inkscape:document-units="px"
     inkscape:current-layer="layer1"
     inkscape:document-rotation="0"
     showgrid="false"
     units="px"
     lock-margins="true"
     fit-margin-top="0.5"
     fit-margin-left="0.5"
     fit-margin-right="0.5"
     fit-margin-bottom="0.5"
     inkscape:window-width="1440"
     inkscape:window-height="872"
     inkscape:window-x="0"
     inkscape:window-y="28"
     inkscape:window-maximized="0" />
  <metadata
     id="metadata13">
    <rdf:RDF>
      <cc:Work
         rdf:about="">
        <dc:format>image/svg+xml</dc:format>
        <dc:type
           rdf:resource="http://purl.org/dc/dcmitype/StillImage" />
        <dc:title></dc:title>
      </cc:Work>
    </rdf:RDF>
  </metadata>
  <g
     inkscape:label="Layer 1"
     inkscape:groupmode="layer"
     id="layer1"
     transform="translate(-96.411822,-65.891882)">
    <g
       id="g16599"
       transform="matrix(4.7838075,0,0,4.7838075,-920.67084,70.76772)">
      <path
         style="fill:#7a7878;fill-opacity:1;fill-rule:nonzero;stroke:none;stroke-width:0.352778"
         d="m 213.59759,1.7906746 c -0.008,0.020669 0.0124,-0.042719 0.0179,-0.064768 l 0.0234,-0.085438 c 0.24253,-0.87643218 0.48369,-1.75424235 0.72484,-2.63205252 l 7.78041,0.0165347 -8.59758,6.99354332 3.92878,-4.7349388 -2.95176,0.00827 c -0.0537,0 -0.10886,0 -0.16398,0.00413 -0.35002,0.030318 -0.65319,0.2425347 -0.76206,0.4947158"
         id="path7986" />
      <path
         style="fill:#e82628;fill-opacity:1;fill-rule:nonzero;stroke:none;stroke-width:0.352778"
         d="m 221.7225,3.8039885 c 0.008,-0.020669 -0.23564,1.491037 -0.66559,3.0523541 l -8.1194,0.045476 8.76983,-7.10240844 -3.93154,4.77903604 2.95176,-0.00827 c 0.0551,0 0.11024,0 0.16398,-0.00413 0.35003,-0.030318 0.7221,-0.5098743 0.83096,-0.762055"
         id="path7988" />
      <path
         style="fill:#7a7878;fill-opacity:1;fill-rule:nonzero;stroke:none;stroke-width:0.352778"
         d="m 214.01789,9.0791172 h -1.38079 l 0.95498,-1.296733 h -0.6339 l 0.0469,-0.3582899 h 1.31464 l -0.95222,1.2939796 h 0.69728 z m 0.26045,0 h 0.95774 l 0.0482,-0.3706914 h -0.54295 l 0.0358,-0.2797418 h 0.51125 l 0.0469,-0.3541557 h -0.51263 l 0.0372,-0.2880099 h 0.54295 l 0.0455,-0.3624241 h -0.95774 z m 1.24024,0 0.21221,-1.6550229 h 0.41066 l 0.48231,0.8516277 c 0.008,0.016535 0.0234,0.052365 0.0427,0.1047309 0.0179,0.052365 0.0386,0.1143769 0.0606,0.1860352 0.001,-0.067524 0.003,-0.1281578 0.005,-0.1819013 0.003,-0.053743 0.007,-0.1019747 0.0124,-0.143316 l 0.10473,-0.8171765 h 0.4079 l -0.21084,1.6550229 h -0.40928 l -0.48094,-0.8543825 c -0.01,-0.017914 -0.0248,-0.052366 -0.0441,-0.1047313 -0.0193,-0.052365 -0.04,-0.1143768 -0.0606,-0.1846569 0,0.068902 -0.003,0.1309137 -0.006,0.1846569 -0.003,0.052366 -0.007,0.1005971 -0.0124,0.1419381 l -0.10473,0.8171757 z m 1.87413,0 0.21222,-1.6550229 h 0.42994 l -0.21221,1.6550229 z m 0.99908,0 0.16123,-1.2636601 h -0.35003 l 0.051,-0.3913628 h 1.12586 l -0.0496,0.3913628 h -0.35002 l -0.16261,1.2636601 z m 0.98391,0 h 0.4272 l 0.0854,-0.6738598 h 0.56776 l -0.0854,0.6738598 h 0.42719 l 0.21084,-1.6550229 h -0.42719 l -0.0813,0.6435439 h -0.56775 l 0.0827,-0.6435439 h -0.42719 z m 0,0"
         id="path7990" />
    </g>
  </g>
</svg>
